<mxfile host="Electron" agent="Mozilla/5.0 (Windows NT 10.0; Win64; x64) AppleWebKit/537.36 (KHTML, like Gecko) draw.io/24.7.8 Chrome/128.0.6613.36 Electron/32.0.1 Safari/537.36" version="24.7.8">
  <diagram id="C5RBs43oDa-KdzZeNtuy" name="Page-1">
    <mxGraphModel dx="1077" dy="660" grid="1" gridSize="10" guides="1" tooltips="1" connect="1" arrows="1" fold="1" page="1" pageScale="1" pageWidth="827" pageHeight="1169" math="0" shadow="0">
      <root>
        <mxCell id="WIyWlLk6GJQsqaUBKTNV-0" />
        <mxCell id="WIyWlLk6GJQsqaUBKTNV-1" parent="WIyWlLk6GJQsqaUBKTNV-0" />
        <mxCell id="hmTvUvVirtF6M48gfIGW-54" value="" style="group" vertex="1" connectable="0" parent="WIyWlLk6GJQsqaUBKTNV-1">
          <mxGeometry x="40" y="10" width="820" height="420" as="geometry" />
        </mxCell>
        <mxCell id="hmTvUvVirtF6M48gfIGW-11" style="edgeStyle=orthogonalEdgeStyle;rounded=0;orthogonalLoop=1;jettySize=auto;html=1;exitX=1;exitY=0.5;exitDx=0;exitDy=0;exitPerimeter=0;entryX=0;entryY=0.5;entryDx=0;entryDy=0;" edge="1" parent="hmTvUvVirtF6M48gfIGW-54" source="hmTvUvVirtF6M48gfIGW-0" target="hmTvUvVirtF6M48gfIGW-1">
          <mxGeometry relative="1" as="geometry" />
        </mxCell>
        <mxCell id="hmTvUvVirtF6M48gfIGW-0" value="Clan member wants to put an Item for sale" style="strokeWidth=2;html=1;shape=mxgraph.flowchart.start_1;whiteSpace=wrap;" vertex="1" parent="hmTvUvVirtF6M48gfIGW-54">
          <mxGeometry x="40" y="80" width="100" height="60" as="geometry" />
        </mxCell>
        <mxCell id="hmTvUvVirtF6M48gfIGW-1" value="Sends a request&amp;nbsp;&lt;div&gt;to put chosen&amp;nbsp;&lt;/div&gt;&lt;div&gt;Item for sale&lt;/div&gt;" style="shape=parallelogram;html=1;strokeWidth=2;perimeter=parallelogramPerimeter;whiteSpace=wrap;rounded=1;arcSize=12;size=0.23;" vertex="1" parent="hmTvUvVirtF6M48gfIGW-54">
          <mxGeometry x="210" y="70" width="150" height="80" as="geometry" />
        </mxCell>
        <mxCell id="hmTvUvVirtF6M48gfIGW-4" style="edgeStyle=orthogonalEdgeStyle;rounded=0;orthogonalLoop=1;jettySize=auto;html=1;exitX=0.5;exitY=1;exitDx=0;exitDy=0;exitPerimeter=0;entryX=1;entryY=0.5;entryDx=0;entryDy=0;" edge="1" parent="hmTvUvVirtF6M48gfIGW-54" source="hmTvUvVirtF6M48gfIGW-2" target="hmTvUvVirtF6M48gfIGW-3">
          <mxGeometry relative="1" as="geometry">
            <Array as="points">
              <mxPoint x="520" y="230" />
            </Array>
          </mxGeometry>
        </mxCell>
        <mxCell id="hmTvUvVirtF6M48gfIGW-6" value="No" style="edgeLabel;html=1;align=center;verticalAlign=middle;resizable=0;points=[];" vertex="1" connectable="0" parent="hmTvUvVirtF6M48gfIGW-4">
          <mxGeometry x="-0.8439" y="1" relative="1" as="geometry">
            <mxPoint as="offset" />
          </mxGeometry>
        </mxCell>
        <mxCell id="hmTvUvVirtF6M48gfIGW-13" style="edgeStyle=orthogonalEdgeStyle;rounded=0;orthogonalLoop=1;jettySize=auto;html=1;exitX=1;exitY=0.5;exitDx=0;exitDy=0;exitPerimeter=0;entryX=0;entryY=0.5;entryDx=0;entryDy=0;" edge="1" parent="hmTvUvVirtF6M48gfIGW-54" source="hmTvUvVirtF6M48gfIGW-2" target="hmTvUvVirtF6M48gfIGW-9">
          <mxGeometry relative="1" as="geometry" />
        </mxCell>
        <mxCell id="hmTvUvVirtF6M48gfIGW-14" value="Yes" style="edgeLabel;html=1;align=center;verticalAlign=middle;resizable=0;points=[];" vertex="1" connectable="0" parent="hmTvUvVirtF6M48gfIGW-13">
          <mxGeometry x="-0.0079" y="2" relative="1" as="geometry">
            <mxPoint as="offset" />
          </mxGeometry>
        </mxCell>
        <mxCell id="hmTvUvVirtF6M48gfIGW-2" value="Is player&amp;nbsp;&lt;div&gt;logged in and&amp;nbsp;&lt;/div&gt;&lt;div&gt;a member&amp;nbsp;&lt;span style=&quot;background-color: initial;&quot;&gt;of Clan&amp;nbsp;&lt;/span&gt;&lt;/div&gt;&lt;div&gt;&lt;span style=&quot;background-color: initial;&quot;&gt;to which the Item&amp;nbsp;&lt;/span&gt;&lt;/div&gt;&lt;div&gt;&lt;span style=&quot;background-color: initial;&quot;&gt;belongs to?&lt;/span&gt;&lt;/div&gt;" style="strokeWidth=2;html=1;shape=mxgraph.flowchart.decision;whiteSpace=wrap;" vertex="1" parent="hmTvUvVirtF6M48gfIGW-54">
          <mxGeometry x="440" y="50" width="160" height="120" as="geometry" />
        </mxCell>
        <mxCell id="hmTvUvVirtF6M48gfIGW-3" value="Sends a reject" style="shape=parallelogram;html=1;strokeWidth=2;perimeter=parallelogramPerimeter;whiteSpace=wrap;rounded=1;arcSize=12;size=0.23;" vertex="1" parent="hmTvUvVirtF6M48gfIGW-54">
          <mxGeometry x="230" y="200" width="110" height="60" as="geometry" />
        </mxCell>
        <mxCell id="hmTvUvVirtF6M48gfIGW-20" style="edgeStyle=orthogonalEdgeStyle;rounded=0;orthogonalLoop=1;jettySize=auto;html=1;exitX=0.5;exitY=1;exitDx=0;exitDy=0;" edge="1" parent="hmTvUvVirtF6M48gfIGW-54" source="hmTvUvVirtF6M48gfIGW-9" target="hmTvUvVirtF6M48gfIGW-10">
          <mxGeometry relative="1" as="geometry">
            <Array as="points">
              <mxPoint x="720" y="320" />
            </Array>
          </mxGeometry>
        </mxCell>
        <mxCell id="hmTvUvVirtF6M48gfIGW-9" value="Starts a voting between Clan members, whenever they want to put the Item on sale" style="rounded=1;whiteSpace=wrap;html=1;absoluteArcSize=1;arcSize=14;strokeWidth=2;" vertex="1" parent="hmTvUvVirtF6M48gfIGW-54">
          <mxGeometry x="670" y="60" width="100" height="100" as="geometry" />
        </mxCell>
        <mxCell id="hmTvUvVirtF6M48gfIGW-10" value="Sends success" style="shape=parallelogram;html=1;strokeWidth=2;perimeter=parallelogramPerimeter;whiteSpace=wrap;rounded=1;arcSize=12;size=0.23;" vertex="1" parent="hmTvUvVirtF6M48gfIGW-54">
          <mxGeometry x="230" y="290" width="110" height="60" as="geometry" />
        </mxCell>
        <mxCell id="hmTvUvVirtF6M48gfIGW-12" style="edgeStyle=orthogonalEdgeStyle;rounded=0;orthogonalLoop=1;jettySize=auto;html=1;exitX=1;exitY=0.5;exitDx=0;exitDy=0;entryX=0;entryY=0.5;entryDx=0;entryDy=0;entryPerimeter=0;" edge="1" parent="hmTvUvVirtF6M48gfIGW-54" source="hmTvUvVirtF6M48gfIGW-1" target="hmTvUvVirtF6M48gfIGW-2">
          <mxGeometry relative="1" as="geometry" />
        </mxCell>
        <mxCell id="hmTvUvVirtF6M48gfIGW-21" value="Player gets response" style="strokeWidth=2;html=1;shape=mxgraph.flowchart.terminator;whiteSpace=wrap;" vertex="1" parent="hmTvUvVirtF6M48gfIGW-54">
          <mxGeometry x="40" y="250" width="100" height="60" as="geometry" />
        </mxCell>
        <mxCell id="hmTvUvVirtF6M48gfIGW-22" style="edgeStyle=orthogonalEdgeStyle;rounded=0;orthogonalLoop=1;jettySize=auto;html=1;exitX=0;exitY=0.5;exitDx=0;exitDy=0;entryX=1;entryY=0.5;entryDx=0;entryDy=0;entryPerimeter=0;" edge="1" parent="hmTvUvVirtF6M48gfIGW-54" source="hmTvUvVirtF6M48gfIGW-3" target="hmTvUvVirtF6M48gfIGW-21">
          <mxGeometry relative="1" as="geometry" />
        </mxCell>
        <mxCell id="hmTvUvVirtF6M48gfIGW-23" style="edgeStyle=orthogonalEdgeStyle;rounded=0;orthogonalLoop=1;jettySize=auto;html=1;exitX=0;exitY=0.5;exitDx=0;exitDy=0;entryX=1;entryY=0.5;entryDx=0;entryDy=0;entryPerimeter=0;" edge="1" parent="hmTvUvVirtF6M48gfIGW-54" source="hmTvUvVirtF6M48gfIGW-10" target="hmTvUvVirtF6M48gfIGW-21">
          <mxGeometry relative="1" as="geometry" />
        </mxCell>
        <mxCell id="hmTvUvVirtF6M48gfIGW-42" value="" style="endArrow=none;dashed=1;html=1;dashPattern=1 3;strokeWidth=2;rounded=0;" edge="1" parent="hmTvUvVirtF6M48gfIGW-54">
          <mxGeometry width="50" height="50" relative="1" as="geometry">
            <mxPoint x="180" y="390" as="sourcePoint" />
            <mxPoint x="180" y="30" as="targetPoint" />
          </mxGeometry>
        </mxCell>
        <mxCell id="hmTvUvVirtF6M48gfIGW-43" value="" style="endArrow=none;dashed=1;html=1;dashPattern=1 3;strokeWidth=2;rounded=0;" edge="1" parent="hmTvUvVirtF6M48gfIGW-54">
          <mxGeometry width="50" height="50" relative="1" as="geometry">
            <mxPoint x="410" y="390" as="sourcePoint" />
            <mxPoint x="410" y="30" as="targetPoint" />
          </mxGeometry>
        </mxCell>
        <mxCell id="hmTvUvVirtF6M48gfIGW-44" value="Game" style="text;html=1;align=center;verticalAlign=middle;whiteSpace=wrap;rounded=0;" vertex="1" parent="hmTvUvVirtF6M48gfIGW-54">
          <mxGeometry x="60" y="20" width="60" height="30" as="geometry" />
        </mxCell>
        <mxCell id="hmTvUvVirtF6M48gfIGW-45" value="Internet" style="text;html=1;align=center;verticalAlign=middle;whiteSpace=wrap;rounded=0;" vertex="1" parent="hmTvUvVirtF6M48gfIGW-54">
          <mxGeometry x="268" y="20" width="60" height="30" as="geometry" />
        </mxCell>
        <mxCell id="hmTvUvVirtF6M48gfIGW-46" value="API" style="text;html=1;align=center;verticalAlign=middle;whiteSpace=wrap;rounded=0;" vertex="1" parent="hmTvUvVirtF6M48gfIGW-54">
          <mxGeometry x="570" y="20" width="60" height="30" as="geometry" />
        </mxCell>
        <mxCell id="hmTvUvVirtF6M48gfIGW-53" value="Item selling process" style="swimlane;whiteSpace=wrap;html=1;" vertex="1" parent="hmTvUvVirtF6M48gfIGW-54">
          <mxGeometry width="820" height="420" as="geometry" />
        </mxCell>
        <mxCell id="hmTvUvVirtF6M48gfIGW-56" value="" style="group" vertex="1" connectable="0" parent="WIyWlLk6GJQsqaUBKTNV-1">
          <mxGeometry x="40" y="470" width="840" height="440" as="geometry" />
        </mxCell>
        <mxCell id="hmTvUvVirtF6M48gfIGW-24" style="edgeStyle=orthogonalEdgeStyle;rounded=0;orthogonalLoop=1;jettySize=auto;html=1;exitX=1;exitY=0.5;exitDx=0;exitDy=0;exitPerimeter=0;entryX=0;entryY=0.5;entryDx=0;entryDy=0;" edge="1" parent="hmTvUvVirtF6M48gfIGW-56" source="hmTvUvVirtF6M48gfIGW-25" target="hmTvUvVirtF6M48gfIGW-26">
          <mxGeometry relative="1" as="geometry" />
        </mxCell>
        <mxCell id="hmTvUvVirtF6M48gfIGW-25" value="Clan member wants to buy an Item from flea market" style="strokeWidth=2;html=1;shape=mxgraph.flowchart.start_1;whiteSpace=wrap;" vertex="1" parent="hmTvUvVirtF6M48gfIGW-56">
          <mxGeometry x="10" y="103" width="118" height="80" as="geometry" />
        </mxCell>
        <mxCell id="hmTvUvVirtF6M48gfIGW-26" value="Sends a request&amp;nbsp;&lt;div&gt;to buy an Item&lt;/div&gt;" style="shape=parallelogram;html=1;strokeWidth=2;perimeter=parallelogramPerimeter;whiteSpace=wrap;rounded=1;arcSize=12;size=0.23;" vertex="1" parent="hmTvUvVirtF6M48gfIGW-56">
          <mxGeometry x="198" y="103" width="150" height="80" as="geometry" />
        </mxCell>
        <mxCell id="hmTvUvVirtF6M48gfIGW-27" style="edgeStyle=orthogonalEdgeStyle;rounded=0;orthogonalLoop=1;jettySize=auto;html=1;exitX=0.5;exitY=1;exitDx=0;exitDy=0;exitPerimeter=0;entryX=1;entryY=0.5;entryDx=0;entryDy=0;" edge="1" parent="hmTvUvVirtF6M48gfIGW-56" source="hmTvUvVirtF6M48gfIGW-31" target="hmTvUvVirtF6M48gfIGW-32">
          <mxGeometry relative="1" as="geometry">
            <Array as="points">
              <mxPoint x="508" y="263" />
            </Array>
          </mxGeometry>
        </mxCell>
        <mxCell id="hmTvUvVirtF6M48gfIGW-28" value="No" style="edgeLabel;html=1;align=center;verticalAlign=middle;resizable=0;points=[];" vertex="1" connectable="0" parent="hmTvUvVirtF6M48gfIGW-27">
          <mxGeometry x="-0.8439" y="1" relative="1" as="geometry">
            <mxPoint as="offset" />
          </mxGeometry>
        </mxCell>
        <mxCell id="hmTvUvVirtF6M48gfIGW-29" style="edgeStyle=orthogonalEdgeStyle;rounded=0;orthogonalLoop=1;jettySize=auto;html=1;exitX=1;exitY=0.5;exitDx=0;exitDy=0;exitPerimeter=0;entryX=0;entryY=0.5;entryDx=0;entryDy=0;" edge="1" parent="hmTvUvVirtF6M48gfIGW-56" source="hmTvUvVirtF6M48gfIGW-31" target="hmTvUvVirtF6M48gfIGW-34">
          <mxGeometry relative="1" as="geometry">
            <Array as="points">
              <mxPoint x="658" y="143" />
            </Array>
          </mxGeometry>
        </mxCell>
        <mxCell id="hmTvUvVirtF6M48gfIGW-30" value="Yes" style="edgeLabel;html=1;align=center;verticalAlign=middle;resizable=0;points=[];" vertex="1" connectable="0" parent="hmTvUvVirtF6M48gfIGW-29">
          <mxGeometry x="-0.0079" y="2" relative="1" as="geometry">
            <mxPoint as="offset" />
          </mxGeometry>
        </mxCell>
        <mxCell id="hmTvUvVirtF6M48gfIGW-31" value="Is player&amp;nbsp;&lt;span style=&quot;background-color: initial;&quot;&gt;logged in and&amp;nbsp;&lt;/span&gt;&lt;div&gt;a member&amp;nbsp;&lt;span style=&quot;background-color: initial;&quot;&gt;of a Clan&lt;/span&gt;&lt;span style=&quot;background-color: initial;&quot;&gt;?&lt;/span&gt;&lt;/div&gt;" style="strokeWidth=2;html=1;shape=mxgraph.flowchart.decision;whiteSpace=wrap;" vertex="1" parent="hmTvUvVirtF6M48gfIGW-56">
          <mxGeometry x="428" y="83" width="160" height="120" as="geometry" />
        </mxCell>
        <mxCell id="hmTvUvVirtF6M48gfIGW-32" value="Sends a reject" style="shape=parallelogram;html=1;strokeWidth=2;perimeter=parallelogramPerimeter;whiteSpace=wrap;rounded=1;arcSize=12;size=0.23;" vertex="1" parent="hmTvUvVirtF6M48gfIGW-56">
          <mxGeometry x="218" y="233" width="110" height="60" as="geometry" />
        </mxCell>
        <mxCell id="hmTvUvVirtF6M48gfIGW-33" style="edgeStyle=orthogonalEdgeStyle;rounded=0;orthogonalLoop=1;jettySize=auto;html=1;exitX=0.5;exitY=1;exitDx=0;exitDy=0;" edge="1" parent="hmTvUvVirtF6M48gfIGW-56" source="hmTvUvVirtF6M48gfIGW-34" target="hmTvUvVirtF6M48gfIGW-35">
          <mxGeometry relative="1" as="geometry">
            <Array as="points">
              <mxPoint x="708" y="353" />
            </Array>
          </mxGeometry>
        </mxCell>
        <mxCell id="hmTvUvVirtF6M48gfIGW-34" value="Starts a voting between Clan members, whenever they want to buy the Item. As well as book the Item for 10 min during the voting, so that other Players can not buy it&amp;nbsp;" style="rounded=1;whiteSpace=wrap;html=1;absoluteArcSize=1;arcSize=14;strokeWidth=2;" vertex="1" parent="hmTvUvVirtF6M48gfIGW-56">
          <mxGeometry x="658" y="78" width="142" height="130" as="geometry" />
        </mxCell>
        <mxCell id="hmTvUvVirtF6M48gfIGW-41" style="edgeStyle=orthogonalEdgeStyle;rounded=0;orthogonalLoop=1;jettySize=auto;html=1;exitX=0;exitY=0.5;exitDx=0;exitDy=0;entryX=1;entryY=0.5;entryDx=0;entryDy=0;entryPerimeter=0;" edge="1" parent="hmTvUvVirtF6M48gfIGW-56" source="hmTvUvVirtF6M48gfIGW-35" target="hmTvUvVirtF6M48gfIGW-37">
          <mxGeometry relative="1" as="geometry">
            <mxPoint x="110" y="323" as="targetPoint" />
          </mxGeometry>
        </mxCell>
        <mxCell id="hmTvUvVirtF6M48gfIGW-35" value="Sends success" style="shape=parallelogram;html=1;strokeWidth=2;perimeter=parallelogramPerimeter;whiteSpace=wrap;rounded=1;arcSize=12;size=0.23;" vertex="1" parent="hmTvUvVirtF6M48gfIGW-56">
          <mxGeometry x="218" y="323" width="110" height="60" as="geometry" />
        </mxCell>
        <mxCell id="hmTvUvVirtF6M48gfIGW-36" style="edgeStyle=orthogonalEdgeStyle;rounded=0;orthogonalLoop=1;jettySize=auto;html=1;exitX=1;exitY=0.5;exitDx=0;exitDy=0;entryX=0;entryY=0.5;entryDx=0;entryDy=0;entryPerimeter=0;" edge="1" parent="hmTvUvVirtF6M48gfIGW-56" source="hmTvUvVirtF6M48gfIGW-26" target="hmTvUvVirtF6M48gfIGW-31">
          <mxGeometry relative="1" as="geometry" />
        </mxCell>
        <mxCell id="hmTvUvVirtF6M48gfIGW-37" value="Player gets response" style="strokeWidth=2;html=1;shape=mxgraph.flowchart.terminator;whiteSpace=wrap;" vertex="1" parent="hmTvUvVirtF6M48gfIGW-56">
          <mxGeometry x="10" y="283" width="100" height="60" as="geometry" />
        </mxCell>
        <mxCell id="hmTvUvVirtF6M48gfIGW-40" style="edgeStyle=orthogonalEdgeStyle;rounded=0;orthogonalLoop=1;jettySize=auto;html=1;exitX=0;exitY=0.5;exitDx=0;exitDy=0;entryX=1;entryY=0.5;entryDx=0;entryDy=0;entryPerimeter=0;" edge="1" parent="hmTvUvVirtF6M48gfIGW-56" source="hmTvUvVirtF6M48gfIGW-32" target="hmTvUvVirtF6M48gfIGW-37">
          <mxGeometry relative="1" as="geometry" />
        </mxCell>
        <mxCell id="hmTvUvVirtF6M48gfIGW-47" value="" style="endArrow=none;dashed=1;html=1;dashPattern=1 3;strokeWidth=2;rounded=0;" edge="1" parent="hmTvUvVirtF6M48gfIGW-56">
          <mxGeometry width="50" height="50" relative="1" as="geometry">
            <mxPoint x="180" y="413" as="sourcePoint" />
            <mxPoint x="180" y="53" as="targetPoint" />
          </mxGeometry>
        </mxCell>
        <mxCell id="hmTvUvVirtF6M48gfIGW-48" value="" style="endArrow=none;dashed=1;html=1;dashPattern=1 3;strokeWidth=2;rounded=0;" edge="1" parent="hmTvUvVirtF6M48gfIGW-56">
          <mxGeometry width="50" height="50" relative="1" as="geometry">
            <mxPoint x="394" y="413" as="sourcePoint" />
            <mxPoint x="394" y="53" as="targetPoint" />
          </mxGeometry>
        </mxCell>
        <mxCell id="hmTvUvVirtF6M48gfIGW-49" value="Game" style="text;html=1;align=center;verticalAlign=middle;whiteSpace=wrap;rounded=0;" vertex="1" parent="hmTvUvVirtF6M48gfIGW-56">
          <mxGeometry x="40" y="33" width="60" height="30" as="geometry" />
        </mxCell>
        <mxCell id="hmTvUvVirtF6M48gfIGW-50" value="Internet" style="text;html=1;align=center;verticalAlign=middle;whiteSpace=wrap;rounded=0;" vertex="1" parent="hmTvUvVirtF6M48gfIGW-56">
          <mxGeometry x="255" y="33" width="60" height="30" as="geometry" />
        </mxCell>
        <mxCell id="hmTvUvVirtF6M48gfIGW-51" value="API" style="text;html=1;align=center;verticalAlign=middle;whiteSpace=wrap;rounded=0;" vertex="1" parent="hmTvUvVirtF6M48gfIGW-56">
          <mxGeometry x="570" y="33" width="60" height="30" as="geometry" />
        </mxCell>
        <mxCell id="hmTvUvVirtF6M48gfIGW-55" value="Item buying process" style="swimlane;whiteSpace=wrap;html=1;" vertex="1" parent="hmTvUvVirtF6M48gfIGW-56">
          <mxGeometry width="840" height="440" as="geometry" />
        </mxCell>
      </root>
    </mxGraphModel>
  </diagram>
</mxfile>
